<mxfile host="app.diagrams.net" agent="Mozilla/5.0 (Windows NT 10.0; Win64; x64) AppleWebKit/537.36 (KHTML, like Gecko) Chrome/117.0.0.0 Safari/537.36" version="27.0.9">
  <diagram name="第 1 页" id="K-StSmLLwdpMSD1rCzvR">
    <mxGraphModel dx="1426" dy="763" grid="1" gridSize="10" guides="1" tooltips="1" connect="1" arrows="1" fold="1" page="1" pageScale="1" pageWidth="827" pageHeight="1169" math="0" shadow="0">
      <root>
        <mxCell id="0" />
        <mxCell id="1" parent="0" />
        <mxCell id="JOeNO35qigloMhoZXKEi-2" value="" style="rounded=0;whiteSpace=wrap;html=1;" vertex="1" parent="1">
          <mxGeometry x="40" y="240" width="310" height="180" as="geometry" />
        </mxCell>
        <mxCell id="JOeNO35qigloMhoZXKEi-3" value="bad case词" style="rounded=0;whiteSpace=wrap;html=1;" vertex="1" parent="1">
          <mxGeometry x="695" y="220" width="120" height="50" as="geometry" />
        </mxCell>
        <mxCell id="JOeNO35qigloMhoZXKEi-4" value="效果分" style="rounded=0;whiteSpace=wrap;html=1;" vertex="1" parent="1">
          <mxGeometry x="695" y="290" width="120" height="50" as="geometry" />
        </mxCell>
        <mxCell id="JOeNO35qigloMhoZXKEi-5" value="相关性" style="rounded=0;whiteSpace=wrap;html=1;" vertex="1" parent="1">
          <mxGeometry x="50" y="290" width="90" height="40" as="geometry" />
        </mxCell>
        <mxCell id="JOeNO35qigloMhoZXKEi-6" value="多样性" style="rounded=0;whiteSpace=wrap;html=1;" vertex="1" parent="1">
          <mxGeometry x="250" y="290" width="90" height="40" as="geometry" />
        </mxCell>
        <mxCell id="JOeNO35qigloMhoZXKEi-7" value="" style="rounded=0;whiteSpace=wrap;html=1;" vertex="1" parent="1">
          <mxGeometry x="50" y="471" width="290" height="100" as="geometry" />
        </mxCell>
        <mxCell id="JOeNO35qigloMhoZXKEi-8" value="产品点击率" style="rounded=0;whiteSpace=wrap;html=1;" vertex="1" parent="1">
          <mxGeometry x="80" y="511" width="80" height="30" as="geometry" />
        </mxCell>
        <mxCell id="JOeNO35qigloMhoZXKEi-9" value="价格" style="rounded=0;whiteSpace=wrap;html=1;" vertex="1" parent="1">
          <mxGeometry x="50" y="350" width="90" height="40" as="geometry" />
        </mxCell>
        <mxCell id="JOeNO35qigloMhoZXKEi-10" value="点评" style="rounded=0;whiteSpace=wrap;html=1;" vertex="1" parent="1">
          <mxGeometry x="150" y="350" width="90" height="40" as="geometry" />
        </mxCell>
        <mxCell id="JOeNO35qigloMhoZXKEi-11" value="销量" style="rounded=0;whiteSpace=wrap;html=1;" vertex="1" parent="1">
          <mxGeometry x="250" y="350" width="90" height="40" as="geometry" />
        </mxCell>
        <mxCell id="JOeNO35qigloMhoZXKEi-12" value="排序" style="rounded=0;whiteSpace=wrap;html=1;" vertex="1" parent="1">
          <mxGeometry x="147" y="290" width="90" height="40" as="geometry" />
        </mxCell>
        <mxCell id="JOeNO35qigloMhoZXKEi-13" value="&lt;b&gt;因子和权重&lt;/b&gt;" style="text;html=1;align=center;verticalAlign=middle;whiteSpace=wrap;rounded=0;" vertex="1" parent="1">
          <mxGeometry x="164" y="240" width="96" height="30" as="geometry" />
        </mxCell>
        <mxCell id="JOeNO35qigloMhoZXKEi-14" value="点击覆盖率" style="rounded=0;whiteSpace=wrap;html=1;" vertex="1" parent="1">
          <mxGeometry x="220" y="511" width="80" height="30" as="geometry" />
        </mxCell>
        <mxCell id="JOeNO35qigloMhoZXKEi-15" value="&lt;b&gt;用户行为数据&lt;/b&gt;" style="text;html=1;align=center;verticalAlign=middle;whiteSpace=wrap;rounded=0;" vertex="1" parent="1">
          <mxGeometry x="147" y="471" width="83" height="30" as="geometry" />
        </mxCell>
        <mxCell id="JOeNO35qigloMhoZXKEi-16" value="" style="shape=flexArrow;endArrow=classic;html=1;rounded=0;" edge="1" parent="1">
          <mxGeometry width="50" height="50" relative="1" as="geometry">
            <mxPoint x="365" y="160.5" as="sourcePoint" />
            <mxPoint x="440" y="240" as="targetPoint" />
          </mxGeometry>
        </mxCell>
        <mxCell id="JOeNO35qigloMhoZXKEi-18" value="" style="shape=flexArrow;endArrow=classic;html=1;rounded=0;" edge="1" parent="1">
          <mxGeometry width="50" height="50" relative="1" as="geometry">
            <mxPoint x="620" y="280" as="sourcePoint" />
            <mxPoint x="675" y="280" as="targetPoint" />
          </mxGeometry>
        </mxCell>
        <mxCell id="JOeNO35qigloMhoZXKEi-19" value="&lt;div style=&quot;text-align: center;&quot;&gt;&lt;span style=&quot;background-color: transparent;&quot;&gt;&lt;b&gt;关键词及召回集&lt;/b&gt;&lt;/span&gt;&lt;/div&gt;{&lt;div&gt;&quot;name&quot;: &quot;上海+苏州+乌镇+杭州4日3晚跟团游&quot;,&lt;br&gt;&quot;departureCity&quot;: &quot;上海&quot;,&lt;br&gt;&quot;brandName&quot;: &quot;欢乐江南行&quot;,&lt;br&gt;&quot;price&quot;: &quot;699.0&quot;,&lt;br&gt;&quot;tags&quot;: &quot;含接机/站、无购物&quot;,&lt;br&gt;&quot;commentCountDesc&quot;: &quot;6点评&quot;&lt;br&gt;}&lt;/div&gt;" style="rounded=0;whiteSpace=wrap;html=1;align=left;" vertex="1" parent="1">
          <mxGeometry x="44" y="60" width="296" height="150" as="geometry" />
        </mxCell>
        <mxCell id="JOeNO35qigloMhoZXKEi-20" value="大模型LLM" style="rounded=0;whiteSpace=wrap;html=1;" vertex="1" parent="1">
          <mxGeometry x="460" y="220" width="150" height="140" as="geometry" />
        </mxCell>
        <mxCell id="JOeNO35qigloMhoZXKEi-21" value="" style="shape=flexArrow;endArrow=classic;html=1;rounded=0;" edge="1" parent="1">
          <mxGeometry width="50" height="50" relative="1" as="geometry">
            <mxPoint x="370" y="511" as="sourcePoint" />
            <mxPoint x="430" y="380" as="targetPoint" />
          </mxGeometry>
        </mxCell>
        <mxCell id="JOeNO35qigloMhoZXKEi-22" value="" style="shape=flexArrow;endArrow=classic;html=1;rounded=0;" edge="1" parent="1">
          <mxGeometry width="50" height="50" relative="1" as="geometry">
            <mxPoint x="370" y="320" as="sourcePoint" />
            <mxPoint x="440" y="320" as="targetPoint" />
          </mxGeometry>
        </mxCell>
      </root>
    </mxGraphModel>
  </diagram>
</mxfile>
